<?xml version="1.0" encoding="UTF-8"?>
<svg xmlns="http://www.w3.org/2000/svg" xmlns:xlink="http://www.w3.org/1999/xlink" viewBox="0 0 583.19 63.95">
  <defs>
    <style>
      .cls-1 {
        fill: #f15a29;
      }

      .cls-1, .cls-2 {
        stroke-width: 0px;
      }

      .cls-3 {
        filter: url(#drop-shadow-1);
      }

      .cls-2 {
        fill: #fff;
      }
    </style>
    <filter id="drop-shadow-1" filterUnits="userSpaceOnUse">
      <feOffset dx="3" dy="1"/>
      <feGaussianBlur result="blur" stdDeviation="2"/>
      <feFlood flood-color="#231f20" flood-opacity=".45"/>
      <feComposite in2="blur" operator="in"/>
      <feComposite in="SourceGraphic"/>
    </filter>
  </defs>
  <g id="Layer_1" data-name="Layer 1" class="cls-3">
    <g>
      <path class="cls-1" d="M7.64,4.4h10.33v2.26h-7.11v26.44h7.11v2.26H7.64V4.4Z"/>
      <path class="cls-1" d="M25.87,6.35h15.06v3.52h-10.87v6.67h9.24v3.52h-9.24v9.82h-4.19V6.35Z"/>
      <path class="cls-1" d="M51.9,9.87h-7.41v-3.52h19.02v3.52h-7.42v20.01h-4.19V9.87Z"/>
      <path class="cls-1" d="M68.43,33.09h7.11V6.65h-7.11v-2.26h10.33v30.96h-10.33v-2.26Z"/>
      <path class="cls-1" d="M111.71,6.35h15.09v3.52h-10.9v6.02h9.24v3.52h-9.24v6.96h11.26v3.52h-15.45V6.35Z"/>
      <path class="cls-1" d="M137.81,20.7l-5.95-8.5h4.5l2.3,3.34c.57.98,1.29,2.04,1.95,3h.14c.56-.96,1.2-2.04,1.73-3.03l2.08-3.32h4.37l-6.01,8.93,6.44,8.75h-4.53l-2.52-3.48c-.7-.99-1.47-2.13-2.17-3.14h-.14c-.63,1.03-1.28,2.07-1.91,3.16l-2.31,3.45h-4.37l6.4-9.18Z"/>
      <path class="cls-1" d="M154.16,12.2h3.4l.32,2.02h.12c1.53-1.43,3.66-2.45,5.68-2.45,4.58,0,7.2,3.53,7.2,9.01,0,6.03-3.74,9.54-7.85,9.54-1.59,0-3.37-.76-4.8-2.1h-.1l.2,3.1v5.56h-4.16V12.2ZM166.61,20.8c0-3.52-1.24-5.59-4.1-5.59-1.34,0-2.75.63-4.19,2.12v7.94c1.3,1.17,2.78,1.59,3.84,1.59,2.51,0,4.45-2.06,4.45-6.07Z"/>
      <path class="cls-1" d="M174.72,21.06c0-5.91,4.22-9.29,8.88-9.29s8.88,3.39,8.88,9.29-4.22,9.25-8.88,9.25-8.88-3.39-8.88-9.25ZM188.21,21.06c0-3.56-1.73-5.9-4.61-5.9s-4.62,2.34-4.62,5.9,1.73,5.85,4.62,5.85,4.61-2.32,4.61-5.85Z"/>
      <path class="cls-1" d="M199.07,12.2h3.44l.35,4.02h.1c1.8-2.88,4.48-4.45,7.52-4.45,1.43,0,2.39.22,3.44.72l-.88,3.52c-1.17-.37-1.86-.55-3.2-.55-2.42,0-4.79,1.24-6.6,4.67v9.75h-4.16V12.2Z"/>
      <path class="cls-1" d="M222.83,22.77v-7.27h-4.73v-3.1l4.9-.19.54-5.54h3.45v5.54h8.04v3.3h-8.04v7.26c0,2.92,1.1,4.24,4.08,4.24,1.47,0,2.69-.3,3.85-.71l.81,3.03c-1.58.52-3.37,1-5.66,1-5.4,0-7.24-3.03-7.24-7.54Z"/>
      <path class="cls-2" d="M263.47,6.35h15.06v3.52h-10.87v6.67h9.24v3.52h-9.24v9.82h-4.19V6.35Z"/>
      <path class="cls-2" d="M285.47,12.2h3.43l.35,4.02h.1c1.8-2.88,4.48-4.45,7.52-4.45,1.43,0,2.39.22,3.44.72l-.88,3.52c-1.17-.37-1.86-.55-3.2-.55-2.42,0-4.79,1.24-6.6,4.67v9.75h-4.16V12.2Z"/>
      <path class="cls-2" d="M304.61,21.02c0-5.77,4.38-9.25,9.11-9.25,5.28,0,8.2,3.5,8.2,8.39,0,.83-.11,1.64-.18,2.09h-14.16v-2.94h11.47l-.8.92c0-3.49-1.64-5.27-4.41-5.27-2.92,0-5.17,2.1-5.17,6.05s2.48,6.07,6.15,6.07c1.85,0,3.37-.54,4.96-1.44l1.42,2.58c-1.89,1.23-4.33,2.09-6.92,2.09-5.41,0-9.67-3.41-9.67-9.29Z"/>
      <path class="cls-2" d="M326.21,21.02c0-5.77,4.38-9.25,9.11-9.25,5.28,0,8.2,3.5,8.2,8.39,0,.83-.11,1.64-.18,2.09h-14.16v-2.94h11.47l-.8.92c0-3.49-1.64-5.27-4.41-5.27-2.92,0-5.17,2.1-5.17,6.05s2.48,6.07,6.15,6.07c1.85,0,3.37-.54,4.96-1.44l1.42,2.58c-1.89,1.23-4.33,2.09-6.92,2.09-5.41,0-9.67-3.41-9.67-9.29Z"/>
      <path class="cls-2" d="M348.13,25.13c0-3.96,3.49-5.94,12.22-6.55-.15-1.98-1.33-3.47-4.21-3.47-1.99,0-3.96.87-5.78,1.88l-1.54-2.76c2.14-1.28,5.04-2.47,8.09-2.47,4.91,0,7.6,2.73,7.6,7.65v10.46h-3.42l-.32-2.19h-.12c-1.86,1.43-4.23,2.62-6.6,2.62-3.45,0-5.92-2.11-5.92-5.18ZM360.35,24.9v-3.72c-6.35.42-8.18,1.72-8.18,3.63,0,1.56,1.38,2.23,3.13,2.23s3.42-.83,5.05-2.14Z"/>
      <path class="cls-2" d="M369.84,21.06c0-5.91,4.65-9.29,10.05-9.29,2.83,0,5.06,1.07,6.53,2.49l-1.96,2.61c-1.4-1.1-2.78-1.7-4.36-1.7-3.54,0-5.98,2.34-5.98,5.9s2.41,5.85,5.86,5.85c2.01,0,3.68-.89,5.04-1.94l1.74,2.66c-2.05,1.77-4.63,2.68-7.15,2.68-5.55,0-9.76-3.39-9.76-9.25Z"/>
      <path class="cls-2" d="M395.63,22.77v-7.27h-4.73v-3.1l4.9-.19.54-5.54h3.45v5.54h8.04v3.3h-8.04v7.26c0,2.92,1.1,4.24,4.08,4.24,1.47,0,2.69-.3,3.85-.71l.81,3.03c-1.58.52-3.37,1-5.66,1-5.4,0-7.24-3.03-7.24-7.54Z"/>
      <path class="cls-2" d="M421.06,15.5h-7.64v-3.3h11.8v17.68h-4.16v-14.38ZM419.91,6.2c0-1.66,1.25-2.81,2.96-2.81s2.96,1.15,2.96,2.81-1.25,2.78-2.96,2.78-2.96-1.1-2.96-2.78Z"/>
      <path class="cls-2" d="M433.92,21.06c0-5.91,4.22-9.29,8.88-9.29s8.88,3.39,8.88,9.29-4.22,9.25-8.88,9.25-8.88-3.39-8.88-9.25ZM447.41,21.06c0-3.56-1.73-5.9-4.61-5.9s-4.62,2.34-4.62,5.9,1.73,5.85,4.62,5.85,4.61-2.32,4.61-5.85Z"/>
      <path class="cls-2" d="M456.56,12.2h3.4l.32,2.66h.14c1.69-1.71,3.68-3.09,6.38-3.09,4.09,0,5.93,2.61,5.93,7.16v10.95h-4.16v-10.41c0-2.84-.91-4.13-3.29-4.13-1.74,0-2.92.85-4.54,2.48v12.06h-4.16V12.2Z"/>
      <path class="cls-2" d="M482.43,26.66c0-2.08,1.51-3.65,3.56-3.65s3.56,1.58,3.56,3.65-1.51,3.65-3.56,3.65-3.56-1.54-3.56-3.65Z"/>
      <path class="cls-2" d="M498.53,36.11l1.26-3.02c1.35.62,2.62.91,3.81.91,2.99,0,3.85-1.46,3.85-4.23v-14.26h-7.64v-3.3h11.8v17.34c0,4.32-1.76,7.76-7.83,7.76-2.02,0-3.78-.5-5.25-1.2ZM506.31,6.2c0-1.66,1.25-2.81,2.96-2.81s2.96,1.15,2.96,2.81-1.25,2.78-2.96,2.78-2.96-1.1-2.96-2.78Z"/>
      <path class="cls-2" d="M520.62,27.58l1.82-2.65c2.11,1.4,4.52,2.24,7.4,2.24,2.45,0,3.6-.93,3.6-2.1s-.78-1.81-4.89-2.66c-4.72-.99-6.81-2.66-6.81-5.35,0-3.07,2.8-5.28,7.75-5.28,2.93,0,5.61,1.15,7.4,2.34l-1.92,2.56c-1.71-1.1-3.75-1.77-5.85-1.77-2.29,0-3.24.88-3.24,1.96,0,1.25,1.3,1.68,4.61,2.4,5.65,1.25,7.12,2.75,7.12,5.56,0,3.04-2.93,5.5-8.3,5.5-3.3,0-6.48-1.25-8.67-2.74Z"/>
      <path class="cls-2" d="M543.32,12.39l4.98-.19h10.73v3.3h-15.71v-3.1ZM548.17,11.24c0-4.17,2.31-7.21,7.53-7.21,1.89,0,3.65.39,5.22.98l-.86,3.08c-1.28-.52-2.46-.76-3.9-.76-2.7,0-3.86,1.37-3.86,3.84v18.71h-4.14V11.24Z"/>
      <path class="cls-2" d="M569.71,23.44V7.76h-5.9v-3.3h10.06v19.2c0,2.36,1.39,3.26,3.18,3.26.92,0,1.89-.21,3.02-.69l.97,3.08c-1.74.64-2.94,1-5.01,1-4.13,0-6.32-2.53-6.32-6.87Z"/>
    </g>
    <g>
      <path class="cls-1" d="M8.99,39.56h3.02l4.66,14.4h-2.73l-2.16-7.65c-.43-1.52-.89-3.15-1.29-4.74h-.09c-.41,1.59-.84,3.23-1.27,4.74l-2.19,7.65h-2.62l4.66-14.4ZM7.1,48.04h6.75v2.02h-6.75v-2.02Z"/>
      <path class="cls-1" d="M32.93,39.56h9.21v2.15h-6.65v4.08h5.65v2.15h-5.65v6.01h-2.56v-14.4Z"/>
      <path class="cls-1" d="M48.5,50.02v-9.59h-3.61v-2.02h6.16v11.74c0,1.44.85,1.99,1.94,1.99.56,0,1.16-.13,1.85-.42l.59,1.88c-1.06.39-1.8.61-3.06.61-2.52,0-3.87-1.55-3.87-4.2Z"/>
      <path class="cls-1" d="M58.3,51.05c0-2.42,2.13-3.63,7.47-4.01-.09-1.21-.81-2.12-2.57-2.12-1.22,0-2.42.53-3.53,1.15l-.94-1.69c1.31-.79,3.08-1.51,4.95-1.51,3,0,4.65,1.67,4.65,4.68v6.4h-2.09l-.19-1.34h-.07c-1.13.88-2.59,1.6-4.04,1.6-2.11,0-3.62-1.29-3.62-3.17ZM65.77,50.91v-2.27c-3.88.26-5.01,1.05-5.01,2.22,0,.95.84,1.36,1.91,1.36s2.09-.51,3.09-1.31Z"/>
      <path class="cls-1" d="M71.32,52.54l1.11-1.62c1.29.86,2.77,1.37,4.52,1.37,1.5,0,2.2-.57,2.2-1.29s-.48-1.1-2.99-1.63c-2.88-.6-4.17-1.62-4.17-3.27,0-1.88,1.71-3.23,4.74-3.23,1.79,0,3.43.7,4.53,1.43l-1.17,1.56c-1.05-.67-2.3-1.08-3.58-1.08-1.4,0-1.98.54-1.98,1.2,0,.76.8,1.03,2.82,1.47,3.46.76,4.35,1.68,4.35,3.4,0,1.86-1.79,3.36-5.08,3.36-2.02,0-3.96-.76-5.3-1.67Z"/>
      <path class="cls-1" d="M84.99,38.4h2.55v4.01l-.15,2.31h.07c.94-1.01,2.16-1.86,3.8-1.86,2.49,0,3.62,1.59,3.62,4.38v6.7h-2.55v-6.37c0-1.73-.56-2.53-2.02-2.53-1.07,0-1.79.52-2.78,1.52v7.38h-2.55v-15.55Z"/>
      <path class="cls-1" d="M101.71,41.71h-4.54v-2.15h11.63v2.15h-4.54v12.24h-2.56v-12.24Z"/>
      <path class="cls-1" d="M111.41,38.4h2.55v4.01l-.15,2.31h.07c.94-1.01,2.16-1.86,3.8-1.86,2.49,0,3.62,1.59,3.62,4.38v6.7h-2.55v-6.37c0-1.73-.56-2.53-2.02-2.53-1.07,0-1.79.52-2.78,1.52v7.38h-2.55v-15.55Z"/>
      <path class="cls-1" d="M124.17,48.53c0-3.53,2.68-5.66,5.57-5.66,3.23,0,5.02,2.14,5.02,5.13,0,.51-.07,1-.11,1.28h-8.66v-1.8h7.02l-.49.56c0-2.14-1-3.22-2.7-3.22-1.79,0-3.17,1.29-3.17,3.7s1.51,3.71,3.76,3.71c1.13,0,2.06-.33,3.03-.88l.87,1.58c-1.15.75-2.65,1.28-4.24,1.28-3.31,0-5.91-2.09-5.91-5.69Z"/>
      <path class="cls-1" d="M137.05,43.14h1.95l.19,1.38h.06c.48-.93,1.15-1.64,2.4-1.64,1,0,1.68.62,1.96,1.82.5-1.06,1.22-1.82,2.46-1.82,1.53,0,2.41,1.26,2.41,3.42v7.66h-2.45v-7.48c0-.95-.26-1.43-.86-1.43s-.92.45-1.35,1.35v7.56h-2.11v-7.48c0-.95-.25-1.43-.86-1.43-.57,0-.95.45-1.36,1.35v7.56h-2.45v-10.81Z"/>
      <path class="cls-1" d="M150.59,48.53c0-3.53,2.68-5.66,5.57-5.66,3.23,0,5.02,2.14,5.02,5.13,0,.51-.07,1-.11,1.28h-8.66v-1.8h7.02l-.49.56c0-2.14-1-3.22-2.7-3.22-1.79,0-3.17,1.29-3.17,3.7s1.51,3.71,3.76,3.71c1.13,0,2.06-.33,3.03-.88l.87,1.58c-1.15.75-2.65,1.28-4.24,1.28-3.31,0-5.91-2.09-5.91-5.69Z"/>
      <path class="cls-1" d="M163.82,52.54l1.11-1.62c1.29.86,2.77,1.37,4.52,1.37,1.5,0,2.2-.57,2.2-1.29s-.48-1.1-2.99-1.63c-2.89-.6-4.17-1.62-4.17-3.27,0-1.88,1.71-3.23,4.74-3.23,1.79,0,3.43.7,4.53,1.43l-1.17,1.56c-1.05-.67-2.3-1.08-3.58-1.08-1.4,0-1.98.54-1.98,1.2,0,.76.8,1.03,2.82,1.47,3.46.76,4.35,1.68,4.35,3.4,0,1.86-1.79,3.36-5.08,3.36-2.02,0-3.96-.76-5.3-1.67Z"/>
      <path class="cls-1" d="M190.06,48.56c0-3.53,2.3-5.69,4.75-5.69,1.24,0,2.14.47,2.98,1.27h.06l-.12-1.82v-3.92h2.55v15.55h-2.08l-.19-1.26h-.07c-.84.85-2.04,1.53-3.26,1.53-2.78,0-4.62-2.09-4.62-5.66ZM197.73,50.81v-4.86c-.77-.72-1.52-.97-2.3-.97-1.51,0-2.76,1.29-2.76,3.55s.99,3.58,2.62,3.58c.9,0,1.69-.4,2.45-1.29Z"/>
      <path class="cls-1" d="M203.45,48.53c0-3.53,2.68-5.66,5.57-5.66,3.23,0,5.02,2.14,5.02,5.13,0,.51-.07,1-.11,1.28h-8.66v-1.8h7.02l-.49.56c0-2.14-1-3.22-2.7-3.22-1.79,0-3.17,1.29-3.17,3.7s1.51,3.71,3.76,3.71c1.13,0,2.06-.33,3.03-.88l.87,1.58c-1.15.75-2.65,1.28-4.24,1.28-3.31,0-5.91-2.09-5.91-5.69Z"/>
      <path class="cls-1" d="M216.2,43.14h2.57l2.09,5.59c.39,1.09.73,2.18,1.08,3.27h.09c.35-1.09.67-2.18,1.07-3.27l2.09-5.59h2.44l-4.22,10.81h-2.9l-4.31-10.81Z"/>
      <path class="cls-1" d="M245.92,49.6v-4.45h-2.89v-1.9l3-.12.33-3.39h2.11v3.39h4.92v2.02h-4.92v4.44c0,1.79.67,2.59,2.5,2.59.9,0,1.65-.18,2.35-.44l.49,1.85c-.97.32-2.06.61-3.46.61-3.3,0-4.43-1.86-4.43-4.61Z"/>
      <path class="cls-1" d="M256.12,48.56c0-3.61,2.58-5.69,5.43-5.69s5.43,2.07,5.43,5.69-2.58,5.66-5.43,5.66-5.43-2.07-5.43-5.66ZM264.38,48.56c0-2.18-1.06-3.61-2.82-3.61s-2.82,1.43-2.82,3.61,1.06,3.58,2.82,3.58,2.82-1.42,2.82-3.58Z"/>
      <path class="cls-1" d="M269.34,48.56c0-3.61,2.58-5.69,5.43-5.69s5.43,2.07,5.43,5.69-2.58,5.66-5.43,5.66-5.43-2.07-5.43-5.66ZM277.59,48.56c0-2.18-1.06-3.61-2.82-3.61s-2.82,1.43-2.82,3.61,1.06,3.58,2.82,3.58,2.82-1.42,2.82-3.58Z"/>
      <path class="cls-1" d="M286.34,50.02v-9.59h-3.61v-2.02h6.16v11.74c0,1.44.85,1.99,1.94,1.99.56,0,1.16-.13,1.85-.42l.59,1.88c-1.06.39-1.8.61-3.06.61-2.52,0-3.87-1.55-3.87-4.2Z"/>
      <path class="cls-1" d="M299.02,51.98c0-1.27.92-2.23,2.18-2.23s2.18.96,2.18,2.23-.92,2.24-2.18,2.24-2.18-.94-2.18-2.24Z"/>
    </g>
  </g>
</svg>